<svg width="20" height="20" viewBox="0 0 20 20" fill="none" xmlns="http://www.w3.org/2000/svg">
<path d="M10.8333 15.8333C10.8333 13.0749 13.075 10.8333 15.8333 10.8333C16.75 10.8333 17.6 11.0833 18.3333 11.5083V4.99992C18.3333 4.55789 18.1577 4.13397 17.8452 3.82141C17.5326 3.50885 17.1087 3.33325 16.6667 3.33325H3.33332C2.40832 3.33325 1.66666 4.07492 1.66666 4.99992V14.9999C1.66666 15.4419 1.84225 15.8659 2.15481 16.1784C2.46737 16.491 2.8913 16.6666 3.33332 16.6666H10.9083C10.8667 16.3916 10.8333 16.1166 10.8333 15.8333ZM3.33332 6.66659V4.99992L9.99999 9.16658L16.6667 4.99992V6.66659L9.99999 10.8333L3.33332 6.66659ZM16.6667 18.3333V16.6666H13.3333V14.9999H16.6667V13.3333L19.1667 15.8333L16.6667 18.3333Z" fill="white"/>
</svg>
