<svg width="20" height="20" viewBox="0 0 20 20" fill="none" xmlns="http://www.w3.org/2000/svg">
<path d="M14.8086 8.41406C15.2656 7.14062 16.582 3.45703 16.582 2.27734C16.582 1.23828 15.9688 0.367188 14.875 0.367188C13.1328 0.367188 11.5703 5.51172 11.082 6.73828C10.7031 5.625 8.92969 0 7.36719 0C6.15235 0 5.58204 0.894531 5.58204 2.01953C5.58204 3.39844 6.91797 6.97266 7.40235 8.34766C7.15625 8.25781 6.89063 8.17969 6.6211 8.17969C5.70704 8.17969 4.73438 9.31641 4.73438 10.2344C4.73438 10.582 4.92579 11.0703 5.04688 11.3945C3.60547 11.7852 3.05079 12.7461 3.05079 14.1953C3.04688 17.0156 5.71875 20 9.47657 20C14.0859 20 16.9531 16.5391 16.9531 12.0742C16.9531 10.3906 16.6836 8.87109 14.8086 8.41406ZM13.4258 4.21875C13.582 3.73828 14.25 1.70703 14.875 1.70703C15.2109 1.70703 15.3008 2.05469 15.3008 2.33203C15.3008 3.07812 13.793 7.19922 13.4609 8.11328L12.1328 7.87891L13.4258 4.21875ZM6.8086 1.88672C6.8086 1.42188 7.375 0.101562 8.61719 3.72656L9.96875 7.64453C9.35938 7.59375 8.88672 7.52734 8.58594 7.69922C8.16016 6.57422 6.8086 3.02344 6.8086 1.88672ZM6.71875 9.53125C7.86329 9.53125 9.33985 13.2266 9.33985 13.7266C9.33985 13.9258 9.14844 14.1719 8.92579 14.1719C8.10938 14.1719 5.92188 11.168 5.92188 10.3555C5.92579 10.0547 6.41797 9.53125 6.71875 9.53125ZM13.918 16.8086C12.7813 18.0586 11.3281 18.707 9.63282 18.707C7.3125 18.707 5.48047 17.4336 4.59766 15.2578C3.92969 13.5625 4.7461 12.5898 5.40235 12.5898C5.84766 12.5898 7.52344 14.9453 7.52344 15.4453C7.52344 15.6367 7.22266 15.7695 7.06641 15.7695C6.4375 15.7695 6.19141 15.1641 5.07032 13.7617C3.91016 14.9219 5.8711 17.1562 7.34766 17.1562C8.36719 17.1562 9.03125 16.2109 8.83204 15.5156C8.97657 15.5156 9.15625 15.5273 9.28907 15.4922C9.33204 16.5508 9.64454 17.8125 10.918 17.9023C10.918 17.8672 10.9961 17.625 10.9961 17.6133C10.9961 16.9336 10.582 16.3398 10.582 15.6484C10.582 14.543 11.4297 13.4727 12.2891 12.8477C12.6016 12.6133 12.9805 12.4688 13.3477 12.3359C13.7266 12.1914 14.1289 12.0234 14.418 11.7344C14.375 11.2969 14.1953 10.9102 13.7578 10.9102C12.6758 10.9102 9.04688 11.0664 9.04688 9.35938C9.04688 9.09766 9.05079 8.84766 9.72657 8.84766C10.9883 8.84766 14.1914 9.16016 15.1289 9.98438C15.8359 10.6133 16.0781 14.4062 13.918 16.8086ZM10.0664 11.8867C10.4453 12.0078 10.8359 12.043 11.2266 12.1211C10.9375 12.332 10.6797 12.5898 10.4336 12.8672C10.3242 12.5352 10.1914 12.2109 10.0664 11.8867Z" fill="white"/>
</svg>
